<svg width="54" height="55" viewBox="0 0 54 55" fill="none" xmlns="http://www.w3.org/2000/svg">
<path d="M53.962 31.7986C53.9662 31.3107 53.8061 31.1326 53.3326 31.1747C52.9844 31.2041 52.6334 31.1803 52.2644 31.1803C52.2964 31.0232 52.2992 30.977 52.3159 30.9377C52.334 30.897 52.3605 30.8381 52.3939 30.8283C53.2768 30.5731 53.1682 29.837 53.1989 29.1654C53.2197 28.7517 53.2532 28.3381 53.281 27.9258C53.4203 25.9221 53.4161 23.9577 51.9468 22.3354C51.5624 21.9105 51.6571 21.4885 52.0541 21.065C52.3618 20.7355 52.8256 20.4144 52.5401 19.8269C52.3006 19.3319 52.4997 19.0445 52.9788 18.8889C53.6292 18.6785 53.9133 18.2298 53.9189 17.5414C53.9356 15.6106 54.0233 13.6784 53.9941 11.7476C53.9676 9.95705 53.813 8.16929 53.7462 6.37872C53.7211 5.68184 53.7963 4.98356 53.8047 4.28668C53.8116 3.66973 53.8729 3.03314 53.7392 2.44563C53.6849 2.21007 53.1696 2.08528 52.8674 1.9044C52.7908 1.85812 52.7323 1.77399 52.6515 1.73894C52.2281 1.54684 51.8159 1.28324 51.3716 1.19911C50.816 1.09254 50.231 1.16405 49.6642 1.10656C49.0862 1.04627 48.5166 0.868194 47.9401 0.851368C47.6546 0.841553 47.3301 1.03365 47.0808 1.21453C46.8384 1.3912 46.6713 1.67164 46.3984 1.99273C46.1115 1.35895 46.1867 0.705542 45.3942 0.660673C42.6144 0.50363 39.8388 0.265261 37.0576 0.139066C35.8362 0.0829796 35.5744 0.406881 35.3181 1.61695C35.2805 1.79923 35.1204 2.06424 34.9755 2.09509C34.4199 2.21287 33.8419 2.33486 33.2848 2.28719C32.9756 2.26195 32.6929 1.9072 32.4019 1.69688C32.1874 1.54123 31.9994 1.29305 31.7654 1.23837C31.271 1.12479 30.7557 1.11077 30.2056 1.05048C30.3351 0.695727 30.4228 0.454554 30.5231 0.179729C30.3309 0.146077 30.2209 0.112425 30.1095 0.109621C28.0135 0.0661536 25.9175 -0.012368 23.8229 0.00165372C22.9232 0.00866456 22.0653 0.10261 21.2311 0.725173C20.2688 1.44449 19.1449 2.05583 17.7995 1.85252C17.1269 1.75016 16.4347 1.78381 15.7509 1.75857C15.1298 1.73614 14.471 1.9086 13.971 1.32109C13.8763 1.20892 13.6298 1.19911 13.4516 1.1949C12.9307 1.18088 12.4084 1.19911 11.8876 1.1949C8.35294 1.16966 4.81691 1.14723 1.28226 1.10796C0.899276 1.10376 0.633273 1.21313 0.591492 1.59452C0.513501 2.31804 0.310169 3.08502 0.460579 3.76507C1.08868 6.60026 0.817107 9.4088 0.234964 12.1781C-0.18702 14.1874 -0.00736363 16.0971 0.509323 18.0251C0.943842 19.6502 1.33937 21.2669 0.938271 22.9804C0.714048 23.9395 0.95359 24.827 1.61512 25.6165C2.35185 26.4942 1.83934 28.1586 0.789254 28.5498C0.612382 28.6157 0.375626 28.8611 0.379803 29.0167C0.434118 30.6951 0.485648 32.3749 0.644414 34.0435C0.686194 34.4838 1.09843 34.8862 1.32962 35.3125C1.52738 35.6728 1.87416 36.0444 1.86719 36.4062C1.8463 37.6667 1.74185 38.9301 1.58169 40.1808C1.52041 40.6491 1.20706 41.0824 1.0288 41.5395C0.8185 42.0793 0.482862 42.622 0.457794 43.1744C0.328274 45.9717 0.950805 48.7677 0.478684 51.5692C0.403479 52.0123 0.587314 52.2451 0.993979 52.3965C2.26829 52.8704 3.57045 52.8886 4.90882 52.7891C6.61208 52.6629 8.3223 52.5914 10.0297 52.5984C11.5868 52.6054 13.1563 52.9181 14.6938 52.7877C16.3915 52.6447 18.0391 52.8382 19.7047 52.984C19.8858 53.0008 20.0627 53.0878 20.2409 53.0835C20.5041 53.0779 20.8036 53.0892 21.0236 52.9714C21.3843 52.7793 21.557 52.7863 21.7631 53.1873C22.0124 53.6725 22.3439 54.1254 22.6962 54.5432C23.2073 55.1517 23.4608 55.1644 23.9204 54.5082C24.4245 53.786 25.0206 53.758 25.7782 53.9655C26.313 54.1113 26.8868 54.1085 27.4397 54.1927C27.5776 54.2123 27.7572 54.2712 27.8283 54.3749C28.2252 54.9484 28.714 54.9919 29.2488 54.6315C30.4061 53.8519 31.7083 53.7145 33.0495 53.6991C35.0104 53.6767 36.9754 53.6781 38.9322 53.5729C39.5826 53.5378 40.2176 53.0541 40.861 53.0485C41.5337 53.0429 42.198 53.4579 42.8832 53.5266C44.1311 53.65 45.3914 53.6935 46.6463 53.6921C47.3663 53.6921 48.0877 53.5421 48.9512 53.4411C48.7464 53.1635 48.6796 53.0541 48.5946 52.963C48.4846 52.848 48.3607 52.7484 48.2423 52.6419C48.3941 52.569 48.5473 52.4301 48.6949 52.4343C49.6015 52.4638 50.5207 52.4456 51.4079 52.6026C52.2421 52.7498 53.0429 53.0948 53.9272 53.3752C53.9412 53.0751 53.9634 52.8087 53.962 52.5423C53.9523 49.0705 53.9286 45.5988 53.9272 42.127C53.9258 38.6847 53.9356 35.241 53.962 31.7986Z" fill="#D43B3B"/>
<path d="M8.67045 27.0397C8.83896 20.6738 8.98101 15.354 9.12168 10.0342C9.16206 8.48619 9.79713 8.13284 11.2218 8.66146C12.5964 9.17185 13.2259 9.91359 13.3763 11.5093C13.9654 17.7517 14.7607 23.9773 15.4863 30.2072C15.911 33.8668 16.3274 37.5279 16.7898 41.1833C16.9388 42.357 16.7647 43.2235 15.5824 43.818C14.464 44.3817 13.4529 45.1613 12.4042 45.8624C11.726 46.3153 11.1522 46.2382 10.6522 45.589C10.584 45.5006 10.5088 45.4165 10.4364 45.331C8.19972 42.6963 8.19415 42.6963 8.29581 39.2484C8.42673 34.8287 8.56599 30.4119 8.67045 27.0397Z" fill="white"/>
<path d="M31.1192 23.5272C30.8699 23.4627 30.4214 23.4066 30.0231 23.2328C25.7894 21.3959 21.5667 19.5325 17.333 17.6942C16.5698 17.3619 16.1185 16.8557 16.0197 16.0046C15.872 14.7188 15.6868 13.4386 15.5016 12.1585C15.4083 11.5036 15.7342 11.1391 16.3219 11.1685C16.7968 11.1924 17.3093 11.3606 17.7229 11.606C22.8438 14.6501 27.948 17.7237 33.062 20.779C33.672 21.1435 34.0605 21.5768 33.9045 22.3452C33.7541 23.0884 33.2569 23.3281 32.569 23.359C32.1525 23.3772 31.7375 23.4529 31.1192 23.5272Z" fill="white"/>
<path d="M34.9575 26.04C34.9157 27.6945 34.3739 28.9565 32.9478 30.0305C28.5413 33.3509 24.2672 36.8493 19.9387 40.2762C19.0321 40.9927 18.7229 40.8791 18.5669 39.7265C18.3789 38.3342 18.1979 36.9376 18.1073 35.5369C18.0892 35.2564 18.436 34.8456 18.7201 34.6675C23.082 31.9333 27.4606 29.2285 31.8351 26.5167C32.4771 26.1185 33.0996 25.6824 33.7639 25.3305C34.4909 24.9449 35.0173 25.2828 34.9575 26.04Z" fill="white"/>
<path d="M40.9975 45.8021C39.2594 44.4504 38.3347 42.8688 38.3082 40.4739C38.2288 33.0732 37.8542 25.6768 37.598 18.2762C37.545 16.7268 37.5604 16.2949 39.0951 16.1337C41.5267 15.8799 44.3358 15.8126 45.9053 16.8207C46.2201 17.0226 45.1756 20.9066 45.1422 21.3567C44.2829 28.2119 43.4946 35.1513 42.9487 42.0373C42.8693 43.0483 42.8456 44.0662 42.698 45.066C42.5364 46.1597 41.7607 46.464 40.9975 45.8021Z" fill="white"/>
<path d="M39.9795 9.75939C40.0658 9.65563 40.187 9.56589 40.2316 9.4467C40.5282 8.66009 41.2106 8.57876 41.8944 8.52127C42.4794 8.4722 43.0657 8.44415 43.652 8.43153C43.7565 8.43013 43.9041 8.52688 43.9612 8.62223C44.3316 9.23918 44.7007 9.86034 45.0363 10.4983C45.45 11.2849 45.8371 12.0842 46.2173 12.8876C46.312 13.0881 46.4471 13.4148 46.3622 13.5172C46.2173 13.6981 45.9137 13.8425 45.6784 13.8397C43.4529 13.806 41.2273 13.7373 39.0004 13.6784C38.4461 13.6644 37.8905 13.6532 37.3348 13.6406C37.2498 13.4541 39.0366 10.919 39.9795 9.75939Z" fill="white"/>
</svg>
